<svg class="svg-icon" style="width: 1em;height: 1em;vertical-align: middle;fill: currentColor;overflow: hidden;" viewBox="0 0 1024 1024" version="1.1" xmlns="http://www.w3.org/2000/svg"><path d="M669.866667 853.333333H354.133333C298.666667 853.333333 256 808.533333 256 753.066667V309.333333c0-55.466667 44.8-100.266667 98.133333-100.266666v42.666666c-32 0-55.466667 25.6-55.466666 57.6v445.866667c0 32 25.6 57.6 55.466666 57.6h313.6c32 0 55.466667-25.6 55.466667-57.6V309.333333c0-32-25.6-57.6-55.466667-57.6v-42.666666c55.466667 0 98.133333 44.8 98.133334 100.266666v445.866667c2.133333 53.333333-42.666667 98.133333-96 98.133333z" fill="#E5737E" /><path d="M573.866667 428.8h-128c-12.8 0-21.333333-8.533333-21.333334-21.333333s8.533333-21.333333 21.333334-21.333334h128c12.8 0 21.333333 8.533333 21.333333 21.333334s-8.533333 21.333333-21.333333 21.333333zM573.866667 552.533333h-128c-12.8 0-21.333333-8.533333-21.333334-21.333333s8.533333-21.333333 21.333334-21.333333h128c12.8 0 21.333333 8.533333 21.333333 21.333333s-8.533333 21.333333-21.333333 21.333333zM573.866667 682.666667h-128c-12.8 0-21.333333-8.533333-21.333334-21.333334s8.533333-21.333333 21.333334-21.333333h128c12.8 0 21.333333 8.533333 21.333333 21.333333s-8.533333 21.333333-21.333333 21.333334zM620.8 290.133333H401.066667c-32 0-59.733333-27.733333-59.733334-59.733333C341.333333 198.4 369.066667 170.666667 401.066667 170.666667h219.733333c32 0 59.733333 27.733333 59.733333 59.733333 0 34.133333-27.733333 59.733333-59.733333 59.733333zM401.066667 213.333333c-8.533333 0-17.066667 8.533333-17.066667 17.066667 0 10.666667 8.533333 17.066667 17.066667 17.066667h219.733333c8.533333 0 17.066667-8.533333 17.066667-17.066667 0-10.666667-8.533333-17.066667-17.066667-17.066667H401.066667z" fill="#E5737E" /></svg>