<svg class="svg-icon" style="width: 1em;height: 1em;vertical-align: middle;fill: currentColor;overflow: hidden;" viewBox="0 0 1024 1024" version="1.1" xmlns="http://www.w3.org/2000/svg"><path d="M477.297778 527.739259H94.814815a18.962963 18.962963 0 0 0-18.962963 18.962963v311.561482a88.557037 88.557037 0 0 0 88.557037 88.177777h312.888889a18.962963 18.962963 0 0 0 18.962963-18.962962V546.702222a18.962963 18.962963 0 0 0-18.962963-18.962963z m-18.962963 380.965926H164.408889A50.441481 50.441481 0 0 1 113.777778 858.263704V565.665185h344.557037zM929.185185 527.739259H546.702222a18.962963 18.962963 0 0 0-18.962963 18.962963v380.965926a18.962963 18.962963 0 0 0 18.962963 18.962963h312.888889A88.557037 88.557037 0 0 0 948.148148 858.263704V546.702222a18.962963 18.962963 0 0 0-18.962963-18.962963z m-18.962963 330.524445a50.441481 50.441481 0 0 1-50.631111 50.251852h-293.925926V565.665185H910.222222zM477.297778 77.368889H164.408889A88.557037 88.557037 0 0 0 75.851852 165.736296v311.561482a18.962963 18.962963 0 0 0 18.962963 18.962963h382.482963a18.962963 18.962963 0 0 0 18.962963-18.962963V96.331852a18.962963 18.962963 0 0 0-18.962963-18.962963z m-18.962963 380.965926H113.777778V165.736296a50.441481 50.441481 0 0 1 50.631111-50.441481h293.925926zM859.591111 77.368889h-312.888889a18.962963 18.962963 0 0 0-18.962963 18.962963v380.965926a18.962963 18.962963 0 0 0 18.962963 18.962963H929.185185a18.962963 18.962963 0 0 0 18.962963-18.962963V165.736296a88.557037 88.557037 0 0 0-88.557037-88.367407zM910.222222 458.334815H565.665185V115.294815h293.925926A50.441481 50.441481 0 0 1 910.222222 165.736296z" fill="#FFB53E" /></svg>